<?xml version="1.0" encoding="UTF-8" standalone="no"?><!DOCTYPE svg PUBLIC "-//W3C//DTD SVG 1.1//EN" "http://www.w3.org/Graphics/SVG/1.1/DTD/svg11.dtd">
<svg width="100%" height="100%" viewBox="8 0 28 46" version="1.1" 
  xmlns="http://www.w3.org/2000/svg" 
  xmlns:xlink="http://www.w3.org/1999/xlink" xmlSpace="preserve" style="fill-rule:evenodd;clip-rule:evenodd;stroke-linecap:square;stroke-linejoin:round;stroke-miterlimit:1.5;">
  <g id="Switch-2A" serifid="Switch 2A">
    <g id="Switch">
      <path d="M34.119,43.607l0,-28.947" style="fill:none;stroke-width:2px;"/>
      <path id="straight-outer" d="M34.119,1.955l0,10.818" style="fill:none;stroke-width:2px;"/>
      <path id="straight-inner" d="M26.828,1.958l0,10.818" style="fill:none;stroke-width:2px;"/>
      <path d="M26.828,24.131l0,19.64" style="fill:none;stroke-width:2px;"/>
      <path id="divergent-inner" d="M26.416,23.186l-16.723,-16.722" style="fill:none;stroke-width:2px;"/>
      <path id="divergent-outer" d="M25.833,12.419l-10.814,-10.161" style="fill:none;stroke-width:2px;"/>
    </g>
    <g id="Label">
      <g>
        <path d="M26.766,33.785l-3.609,0" style="fill:none;stroke-width:2px;"/>
        <path d="M1.959,29.305c0,-2.665 2.164,-4.828 4.828,-4.828l9.656,0c2.665,0 4.829,2.163 4.829,4.828l0,9.656c0,2.665 -2.164,4.828 -4.829,4.828l-9.656,0c-2.664,0 -4.828,-2.163 -4.828,-4.828l0,-9.656Z" style="fill:none;stroke-width:2px;"/>
      </g>
      <text x="3.619px" y="37.709px" style="font-family:'Arial-BoldMT', 'Arial', sans-serif;font-weight:700;font-size:10px;">101</text>
    </g>
  </g>
</svg>