<?xml version="1.0" encoding="UTF-8" standalone="no"?>
<!DOCTYPE svg PUBLIC "-//W3C//DTD SVG 1.1//EN" "http://www.w3.org/Graphics/SVG/1.1/DTD/svg11.dtd">
<svg width="100%" height="100%" viewBox="0 0 155 90" version="1.1" xmlns="http://www.w3.org/2000/svg" xmlns:xlink="http://www.w3.org/1999/xlink" xml:space="preserve" style="fill-rule:evenodd;clip-rule:evenodd;stroke-linejoin:round;stroke-miterlimit:2;">
    <g transform="matrix(1,0,0,1,-66.0732,0)">
        <g id="Artboard2" transform="matrix(0.701398,0,0,0.817859,63.9469,98.1431)">
            <rect x="3.032" y="-120" width="220.969" height="110"/>
            <clipPath id="_clip1">
                <rect x="3.032" y="-120" width="220.969" height="110"/>
            </clipPath>
            <g clip-path="url(#_clip1)">
                <g id="Layer4" transform="matrix(1.42572,0,0,1.2227,-91.1706,-120)">
                    <g transform="matrix(41.3813,0,0,1,-9100.88,28)">
                        <rect x="220" y="14.017" width="3.969" height="5.983" style="fill:rgb(77,0,151);"/>
                    </g>
                    <g transform="matrix(35.8095,0,0,1,-7875.08,40)">
                        <rect x="220" y="14.017" width="3.969" height="5.983" style="fill:rgb(77,0,151);"/>
                    </g>
                    <g transform="matrix(30.9058,0,0,1,-6796.29,52)">
                        <rect x="220" y="14.017" width="3.969" height="5.983" style="fill:rgb(77,0,151);"/>
                    </g>
                    <g transform="matrix(10.0552,0,0,1,-2099.19,13.4929)">
                        <rect x="220" y="14.017" width="3.969" height="5.983" style="fill:rgb(77,0,151);"/>
                    </g>
                    <g transform="matrix(45.3565,0,0,1,-9975.43,64.0818)">
                        <rect x="220" y="14.017" width="3.969" height="5.983" style="fill:rgb(77,0,151);"/>
                    </g>
                    <g transform="matrix(26.2223,-15.1394,0.5,0.866025,-5698.94,3397.04)">
                        <rect x="220" y="14.017" width="3.969" height="5.983" style="fill:rgb(77,0,151);"/>
                    </g>
                    <g transform="matrix(26.5721,-15.3414,0.5,0.866025,-5751.09,3441.87)">
                        <rect x="220" y="14.017" width="3.969" height="5.983" style="fill:rgb(77,0,151);"/>
                    </g>
                    <g transform="matrix(3.69594,-2.13385,0.5,0.866025,-721.967,493.286)">
                        <rect x="220" y="14.017" width="3.969" height="5.983" style="fill:rgb(77,0,151);"/>
                    </g>
                    <g transform="matrix(55.6798,0,0,1,-12246.5,-8)">
                        <rect x="220" y="14.017" width="3.969" height="5.983" style="fill:rgb(0,149,48);"/>
                    </g>
                    <g transform="matrix(55.6798,0,0,1,-12246.5,4)">
                        <rect x="220" y="14.017" width="3.969" height="5.983" style="fill:rgb(0,149,48);"/>
                    </g>
                    <g transform="matrix(7.78637,-4.49546,0.5,0.866025,-1548.74,1000.86)">
                        <rect x="220" y="14.017" width="3.969" height="5.983" style="fill:rgb(0,149,48);"/>
                    </g>
                </g>
                <g id="t101" transform="matrix(1.42572,0,0,1.2227,-91.1706,-120)">
                    <g transform="matrix(5.03961,-4.44089e-16,0,1,-982.807,-8)">
                        <rect x="220" y="14.017" width="3.969" height="5.983" style="fill:rgb(94,94,94);"/>
                    </g>
                    <g transform="matrix(5.03961,-4.44089e-16,0,1,-983.464,4)">
                        <rect x="220" y="14.017" width="3.969" height="5.983" style="fill:rgb(94,94,94);"/>
                    </g>
                    <g transform="matrix(2.83688,1.63787,-0.5,0.866025,-491.113,-366.454)">
                        <rect x="220" y="14.017" width="3.969" height="5.983" style="fill:rgb(0,149,48);"/>
                    </g>
                    <g transform="matrix(2.83688,1.63787,-0.5,0.866025,-480.113,-360.153)">
                        <rect x="220" y="14.017" width="3.969" height="5.983" style="fill:rgb(0,149,48);"/>
                    </g>
                </g>
                <g id="t102" transform="matrix(1.42572,0,0,1.2227,-91.1706,-120)">
                    <g transform="matrix(5.03961,-4.44089e-16,0,1,-926.468,-8)">
                        <rect x="220" y="14.017" width="3.969" height="5.983" style="fill:rgb(94,94,94);"/>
                    </g>
                    <g transform="matrix(2.83688,-1.63787,0.5,0.866025,-440.212,360.852)">
                        <rect x="220" y="14.017" width="3.969" height="5.983" style="fill:rgb(0,149,48);"/>
                    </g>
                </g>
                <g id="t103" transform="matrix(1.42572,0,0,1.2227,-91.1706,-120)">
                    <g transform="matrix(3.27575,-4.44089e-16,0,1,-526.422,4)">
                        <rect x="220" y="14.017" width="3.969" height="5.983" style="fill:rgb(94,94,94);"/>
                    </g>
                    <g transform="matrix(2.83688,-1.63787,0.5,0.866025,-435.348,372.852)">
                        <rect x="220" y="14.017" width="3.969" height="5.983" style="fill:rgb(0,149,48);"/>
                    </g>
                </g>
                <g id="t104" transform="matrix(1.42572,0,0,1.2227,-91.1706,-120)">
                    <g transform="matrix(2.83688,-1.63787,0.5,0.866025,-477.672,397.033)">
                        <rect x="220" y="14.017" width="3.969" height="5.983" style="fill:rgb(94,94,94);"/>
                    </g>
                    <g transform="matrix(3.27575,-2.22045e-16,-2.22045e-16,1,-565.965,28)">
                        <rect x="220" y="14.017" width="3.969" height="5.983" style="fill:rgb(77,0,151);"/>
                    </g>
                </g>
                <g id="t110" transform="matrix(1.42572,0,0,1.2227,-91.1706,-120)">
                    <g transform="matrix(2.83688,-1.63787,0.5,0.866025,-498.352,409.131)">
                        <rect x="220" y="14.017" width="3.969" height="5.983" style="fill:rgb(94,94,94);"/>
                    </g>
                    <g transform="matrix(3.27575,-2.22045e-16,-2.22045e-16,1,-586.664,40)">
                        <rect x="220" y="14.017" width="3.969" height="5.983" style="fill:rgb(77,0,151);"/>
                    </g>
                </g>
                <g id="t105" transform="matrix(1.42572,0,0,1.2227,-92.1068,-137.593)">
                    <g transform="matrix(2.83688,-1.63787,0.5,0.866025,-478.558,397.625)">
                        <rect x="220" y="14.017" width="3.969" height="5.983" style="fill:rgb(94,94,94);"/>
                    </g>
                    <g transform="matrix(3.27575,-2.22045e-16,-2.22045e-16,1,-567.164,27.8712)">
                        <rect x="220" y="14.017" width="3.969" height="5.983" style="fill:rgb(77,0,151);"/>
                    </g>
                </g>
                <g id="t106" transform="matrix(1.42572,0,0,1.2227,-92.1068,-137.593)">
                    <g transform="matrix(3.27575,0,-5.55112e-17,1,-630.169,42.3886)">
                        <rect x="220" y="14.017" width="3.969" height="5.983" style="fill:rgb(94,94,94);"/>
                    </g>
                    <g transform="matrix(2.83688,-1.63787,0.5,0.866025,-543.465,405.081)">
                        <rect x="220" y="14.017" width="3.969" height="5.983" style="fill:rgb(77,0,151);"/>
                    </g>
                </g>
                <g id="t107" transform="matrix(1.42572,0,0,1.2227,-92.1068,-137.593)">
                    <g transform="matrix(3.27575,0,-5.55112e-17,1,-619.523,66.3886)">
                        <rect x="220" y="14.017" width="3.969" height="5.983" style="fill:rgb(94,94,94);"/>
                    </g>
                    <g transform="matrix(2.83688,-1.63787,0.5,0.866025,-532.892,429.258)">
                        <rect x="220" y="14.017" width="3.969" height="5.983" style="fill:rgb(77,0,151);"/>
                    </g>
                </g>
                <g id="t108" transform="matrix(1.42572,0,0,1.2227,-92.1068,-137.593)">
                    <g transform="matrix(3.27575,0,-5.55112e-17,1,-614.097,78.4704)">
                        <rect x="220" y="14.017" width="3.969" height="5.983" style="fill:rgb(94,94,94);"/>
                    </g>
                    <g transform="matrix(2.83688,-1.63787,0.5,0.866025,-527.385,440.762)">
                        <rect x="220" y="14.017" width="3.969" height="5.983" style="fill:rgb(77,0,151);"/>
                    </g>
                </g>
                <g id="t109" transform="matrix(1.42572,0,0,1.2227,-92.1068,-137.593)">
                    <g transform="matrix(2.40044,-1.38589,0.5,0.866025,-421.796,379.827)">
                        <rect x="220" y="14.017" width="3.969" height="5.983" style="fill:rgb(94,94,94);"/>
                    </g>
                    <g transform="matrix(3.27575,-2.22045e-16,-1.66533e-16,1,-607.356,66.3886)">
                        <rect x="220" y="14.017" width="3.969" height="5.983" style="fill:rgb(77,0,151);"/>
                    </g>
                </g>
            </g>
        </g>
        <g id="Layer3">
        </g>
    </g>
</svg>
