<?xml version="1.0" encoding="UTF-8" standalone="no"?>
<!DOCTYPE svg PUBLIC "-//W3C//DTD SVG 1.1//EN" "http://www.w3.org/Graphics/SVG/1.1/DTD/svg11.dtd">
<svg width="100%" height="100%" viewBox="0 0 363 152" version="1.1" xmlns="http://www.w3.org/2000/svg" xmlns:xlink="http://www.w3.org/1999/xlink" xml:space="preserve" xmlns:serif="http://www.serif.com/" style="fill-rule:evenodd;clip-rule:evenodd;stroke-linecap:square;stroke-linejoin:round;stroke-miterlimit:1.5;">
    <g transform="matrix(1,0,0,1,-391,-101)">
        <g transform="matrix(0.91221,0,0,0.91221,56.2215,12.1146)">
            <path d="M640.406,137.995L621.645,119.233" style="fill:none;stroke:rgb(242,13,13);stroke-width:4.38px;"/>
        </g>
        <g transform="matrix(0.889485,0,0,0.889485,64.1685,15.3449)">
            <path d="M600.055,119.426L580.632,138.849" style="fill:none;stroke:rgb(242,13,13);stroke-width:4.5px;"/>
        </g>
        <g transform="matrix(1,0,0,1,-0.505261,-59.5101)">
            <path d="M760.118,179.528L120.046,179.528" style="fill:none;stroke:rgb(38,217,59);stroke-width:4px;"/>
        </g>
        <g transform="matrix(0.400731,0,0,0.319099,326.496,121.179)">
            <path d="M760.118,179.528L120.046,179.528" style="fill:none;stroke:rgb(38,217,185);stroke-width:11.04px;"/>
        </g>
        <g transform="matrix(0.334228,0,0,0.319099,347.218,142.493)">
            <path d="M760.118,179.528L120.046,179.528" style="fill:none;stroke:rgb(38,217,185);stroke-width:12.24px;"/>
        </g>
        <g transform="matrix(0.0461576,0,0,0.319099,624.648,142.641)">
            <path d="M760.118,179.528L120.046,179.528" style="fill:none;stroke:rgb(38,217,185);stroke-width:17.54px;"/>
        </g>
        <g transform="matrix(0.0461576,0,0,0.319099,646.595,120.712)">
            <path d="M760.118,179.528L120.046,179.528" style="fill:none;stroke:rgb(38,217,185);stroke-width:17.54px;"/>
        </g>
        <g transform="matrix(0.0461576,0,0,0.319099,599.64,142.625)">
            <path d="M760.118,179.528L120.046,179.528" style="fill:none;stroke:rgb(38,217,185);stroke-opacity:0.58;stroke-width:17.54px;"/>
        </g>
        <g transform="matrix(0.0461576,0,0,0.319099,627.917,120.929)">
            <path d="M760.118,179.528L120.046,179.528" style="fill:none;stroke:rgb(38,217,185);stroke-opacity:0.58;stroke-width:17.54px;"/>
        </g>
        <g transform="matrix(1.68351,0,0,1.68351,-477.18,-82.9785)">
            <path d="M639.6,179.935L698.134,121.401" style="fill:none;stroke:rgb(38,217,185);stroke-width:2.38px;"/>
        </g>
        <g transform="matrix(0.409356,0,0,0.319099,326.136,162.154)">
            <path d="M760.118,179.528L120.046,179.528" style="fill:none;stroke:rgb(38,217,185);stroke-width:10.9px;"/>
        </g>
        <path d="M659.276,159.45L620.304,159.45L602.613,177.142" style="fill:none;stroke:rgb(38,217,185);stroke-width:4px;"/>
        <g transform="matrix(0.449677,0,0,0.319099,319.825,182.862)">
            <path d="M760.118,179.528L120.046,179.528" style="fill:none;stroke:rgb(38,217,185);stroke-width:10.26px;"/>
        </g>
        <g transform="matrix(1.23616,0,0,1.23616,-170.482,-32.1201)">
            <path d="M720.488,139.42L640.326,219.583" style="fill:none;stroke:rgb(38,217,185);stroke-width:3.24px;"/>
        </g>
        <g transform="matrix(1,0,0,1,-0.505261,-40.1323)">
            <path d="M760.118,179.528L120.046,179.528" style="fill:none;stroke:rgb(230,26,26);stroke-width:4px;"/>
        </g>
        <g transform="matrix(0.733184,0,0,0.733184,186.454,45.4887)">
            <circle cx="580.203" cy="113.496" r="8.422" style="fill:rgb(115,118,140);stroke:rgb(166,89,143);stroke-width:2.73px;"/>
        </g>
        <g transform="matrix(0.733184,0,0,0.733184,272.772,37.3987)">
            <circle cx="580.203" cy="113.496" r="8.422" style="fill:rgb(115,118,140);stroke:rgb(166,89,143);stroke-width:2.73px;"/>
        </g>
        <g transform="matrix(0.733184,0,0,0.733184,293.346,56.7152)">
            <circle cx="580.203" cy="113.496" r="8.422" style="fill:rgb(115,118,140);stroke:rgb(166,89,143);stroke-width:2.73px;"/>
        </g>
        <g transform="matrix(0.733184,0,0,0.733184,231.999,76.0388)">
            <circle cx="580.203" cy="113.496" r="8.422" style="fill:rgb(115,118,140);stroke:rgb(166,89,143);stroke-width:2.73px;"/>
        </g>
        <g transform="matrix(0.733184,0,0,0.733184,253.616,95.7498)">
            <circle cx="580.203" cy="113.496" r="8.422" style="fill:rgb(115,118,140);stroke:rgb(166,89,143);stroke-width:2.73px;"/>
        </g>
        <g transform="matrix(0.733184,0,0,0.733184,173.782,95.2387)">
            <circle cx="580.203" cy="113.496" r="8.422" style="fill:rgb(115,118,140);stroke:rgb(166,89,143);stroke-width:2.73px;"/>
        </g>
        <g transform="matrix(0.733184,0,0,0.733184,234.331,115.011)">
            <circle cx="580.203" cy="113.496" r="8.422" style="fill:rgb(115,118,140);stroke:rgb(166,89,143);stroke-width:2.73px;"/>
        </g>
        <g transform="matrix(0.733184,0,0,0.733184,213.697,137.126)">
            <circle cx="580.203" cy="113.496" r="8.422" style="fill:rgb(115,118,140);stroke:rgb(166,89,143);stroke-width:2.73px;"/>
        </g>
        <g transform="matrix(0.733184,0,0,0.733184,174.623,136.126)">
            <circle cx="580.203" cy="113.496" r="8.422" style="fill:rgb(115,118,140);stroke:rgb(166,89,143);stroke-width:2.73px;"/>
        </g>
        <g transform="matrix(0.733184,0,0,0.733184,193.583,157.094)">
            <circle cx="580.203" cy="113.496" r="8.422" style="fill:rgb(115,118,140);stroke:rgb(166,89,143);stroke-width:2.73px;"/>
        </g>
        <g transform="matrix(1,0,0,1,-25.0216,16.5193)">
            <text x="637.038px" y="227.928px" style="font-family:'ArialMT', 'Arial', sans-serif;font-size:12px;fill:white;">10</text>
        </g>
        <g transform="matrix(1,0,0,1,-40.2077,-4.23877)">
            <text x="637.038px" y="227.928px" style="font-family:'ArialMT', 'Arial', sans-serif;font-size:12px;fill:white;">9</text>
        </g>
        <g transform="matrix(1,0,0,1,-0.991677,-3.7818)">
            <text x="637.038px" y="227.928px" style="font-family:'ArialMT', 'Arial', sans-serif;font-size:12px;fill:white;">8</text>
        </g>
        <g transform="matrix(1,0,0,1,19.8324,-24.6306)">
            <text x="637.038px" y="227.928px" style="font-family:'ArialMT', 'Arial', sans-serif;font-size:12px;fill:white;">7</text>
        </g>
        <g transform="matrix(1,0,0,1,38.8909,-44.755)">
            <text x="637.038px" y="227.928px" style="font-family:'ArialMT', 'Arial', sans-serif;font-size:12px;fill:white;">6</text>
        </g>
        <g transform="matrix(1,0,0,1,-41.1534,-45.2992)">
            <text x="637.038px" y="227.928px" style="font-family:'ArialMT', 'Arial', sans-serif;font-size:12px;fill:white;">5</text>
        </g>
        <g transform="matrix(1,0,0,1,17.3814,-64.6804)">
            <text x="637.038px" y="227.928px" style="font-family:'ArialMT', 'Arial', sans-serif;font-size:12px;fill:white;">4</text>
        </g>
        <g transform="matrix(1,0,0,1,79.3106,-84.024)">
            <text x="637.038px" y="227.928px" style="font-family:'ArialMT', 'Arial', sans-serif;font-size:12px;fill:white;">3</text>
        </g>
        <g transform="matrix(1,0,0,1,57.5691,-103.487)">
            <text x="637.038px" y="227.928px" style="font-family:'ArialMT', 'Arial', sans-serif;font-size:12px;fill:white;">2</text>
        </g>
        <g transform="matrix(1,0,0,1,-28.3028,-94.8724)">
            <text x="637.038px" y="227.928px" style="font-family:'ArialMT', 'Arial', sans-serif;font-size:12px;fill:white;">1</text>
        </g>
    </g>
</svg>
